<?xml version="1.0" encoding="utf-8"?>
<!-- Generator: Adobe Illustrator 18.0.0, SVG Export Plug-In . SVG Version: 6.00 Build 0)  -->
<!DOCTYPE svg PUBLIC "-//W3C//DTD SVG 1.1//EN" "http://www.w3.org/Graphics/SVG/1.1/DTD/svg11.dtd">
<svg version="1.1" id="Layer_1" xmlns="http://www.w3.org/2000/svg" xmlns:xlink="http://www.w3.org/1999/xlink" x="0px" y="0px"
	 viewBox="0 0 113.4 28.4" enable-background="new 0 0 113.4 28.4" xml:space="preserve">
<g>
	<g>
		<path fill="#009BCC" d="M42.9,9.8c0-0.3,0-0.5,0-0.8c0-0.3-0.1-0.6-0.2-0.8C42.1,6.9,40.1,7,39.4,8c-0.2,0.3-0.3,0.5-0.3,0.9
			c-1.4-2-4.3-2.3-6.4-1.2c-0.8,0.4-1.5,0.9-2.1,1.6c-0.6,0.7-1.1,1.5-1.4,2.5c-0.3,0.9-0.5,2-0.5,3.1c0,1.1,0.2,2.2,0.5,3.1
			c0.3,0.9,0.8,1.7,1.4,2.4c2.1,2.4,6.1,3,8.4,0.5c0.1-0.1,0.1-0.1,0.2-0.2c0.1,0.4,0.2,0.7,0.4,0.9c0.2,0.3,0.4,0.4,0.6,0.6
			c0.6,0.3,1.5,0.3,2.1-0.1c0.3-0.2,0.5-0.4,0.6-0.7c0.1-0.3,0.2-0.6,0.2-0.9c0-0.3,0-0.6,0-0.8V9.8z M32.6,14.8c0-0.1,0-0.2,0-0.4
			c0.1-0.9,0.3-1.8,0.9-2.5s1.4-1.2,2.3-1.2c0.9,0,1.8,0.5,2.3,1.2c0.5,0.7,0.8,1.6,0.8,2.5c0,1.1-0.2,2.3-0.8,3.2
			c-0.6,0.8-1.4,1.3-2.4,1.2c-1-0.1-1.9-0.7-2.4-1.5C32.8,16.6,32.6,15.7,32.6,14.8z M45.2,26c0.1,0.9,0.3,1.8,1.4,2.1
			c1.4,0.4,2.6-0.8,2.6-2.1v-4.9c0.4,0.3,0.7,0.6,1.1,0.8c0.4,0.2,0.8,0.4,1.3,0.5c0.4,0.1,0.9,0.2,1.3,0.2c0.8,0,1.6-0.1,2.2-0.4
			c0.7-0.3,1.3-0.7,1.8-1.1c0.5-0.5,1-1.1,1.4-1.7c0.4-0.6,0.7-1.3,0.9-2.1c0.2-0.7,0.3-1.5,0.3-2.2c0-0.8-0.1-1.6-0.3-2.3
			c-0.2-0.8-0.4-1.5-0.8-2.2c-0.3-0.7-0.8-1.3-1.3-1.8c-0.5-0.5-1.1-0.9-1.8-1.2C54.6,7.2,53.9,7,53,7c-0.5,0-1,0.1-1.5,0.2
			c-0.5,0.1-0.9,0.3-1.3,0.6c-0.4,0.3-0.7,0.6-1,1C48.9,7.8,48,7,46.8,7.2c-1.1,0.2-1.7,1.2-1.7,2.2c0,1.1,0,2.2,0,3.3
			c0,2.2,0,4.5,0,6.7c0,1.9,0,3.7,0,5.6C45.2,25.4,45.2,25.7,45.2,26z M49.2,14.7c0-0.9,0.2-1.8,0.7-2.5c0.5-0.7,1.2-1.3,2.1-1.4
			c1.1-0.1,2.2,0.5,2.8,1.4s0.8,2,0.7,3.1c-0.1,0.9-0.3,1.7-0.9,2.4c-0.5,0.7-1.4,1.2-2.2,1.2c-1,0-1.8-0.6-2.4-1.4
			C49.4,16.6,49.2,15.6,49.2,14.7"/>
		<path fill="#BB1E23" d="M88.9,16.1c0.6,0,1.1-0.1,1.3-0.4c0.3-0.3,0.4-0.7,0.4-1.3c-0.1-3.3-2.5-6.4-5.7-7.1
			c-0.5-0.1-1-0.2-1.5-0.2c-3.3,0-6,2.5-6.9,5.5c-0.5,1.7-0.4,3.6,0.2,5.3c0.7,1.8,2.1,3.3,3.9,4.1c1.5,0.6,3.3,0.7,4.9,0.4
			c1.5-0.3,3.3-0.9,4.3-2.2c0.3-0.3,0.4-0.7,0.4-1c0-0.8-0.8-1.7-1.6-1.7c-0.2,0-0.4,0.1-0.7,0.2c-0.8,0.4-1.5,0.9-2.4,1.2
			c-0.6,0.2-1.3,0.3-2,0.2c-1.3-0.1-2.5-0.7-3.1-2c0-0.1-0.3-0.9-0.2-0.9H88.9z M80.3,13.4c0.1-0.6,0.2-1.1,0.5-1.5
			c0.3-0.5,0.6-0.8,1.1-1.1c0.5-0.3,1-0.4,1.6-0.4c0.6,0,1.2,0.1,1.6,0.4c0.4,0.3,0.8,0.6,1.1,1.1c0.3,0.5,0.4,1,0.5,1.6H80.3z
			 M108,20.1c0,0.7,0.3,1.5,1,1.9c0.6,0.4,1.5,0.4,2.1,0c0.7-0.4,1-1.2,1-1.9V3c0-0.8-0.3-1.5-1-1.9c-0.6-0.4-1.5-0.4-2.1,0
			c-0.7,0.4-1,1.2-1,1.9C108,3,108,20.1,108,20.1z"/>
	</g>
</g>
<path fill="#009BCC" d="M17.7,13.7c0-0.4,0-0.8,0.1-1.2c0.2-1.1,1.1-2,2.2-2.1c0.1,0,0.2,0,0.3,0c0,0,2.5-0.3,2.6,2.8v7
	c0,0,0,2.2,2,2.2c0,0,2,0,2-2.2s0-8.1,0-8.1s-0.1-3.7-3.5-4.8c-3-0.8-5,0.2-5.8,1.4c0,0,0,0,0,0c-0.1-0.8-0.7-1.5-1.8-1.5
	c-1.1,0-1.9,0.8-2,2v11.1c0,1.2,0.9,2.1,2,2.1c1.1,0,2-0.9,2-2.1"/>
<path fill="#009BCC" d="M11.9,9.9c0-0.1,0-0.3,0-0.4c-0.2-1.1-1.4-1.7-2.3-2C8.7,7.2,7.8,7,6.9,7C5.5,7,4.1,7.4,3,8.3
	c-1,0.8-1.5,2.1-1.5,3.4c0,0.7,0.1,1.2,0.4,1.7c0.5,1,1.4,1.6,2.4,2.1c0.9,0.4,1.9,0.8,2.8,1.2c0.6,0.3,1.5,0.7,1.4,1.5
	C8.3,18.9,7.5,19,6.9,19c-0.7,0-1.5-0.3-2.1-0.6c-0.6-0.4-1.3-0.7-2-0.7c-0.9,0-1.7,0.9-1.7,1.8c0,0.4,0.1,0.7,0.4,1
	c1.1,1.5,3.5,2.1,5.2,2.1c0.9,0,1.6-0.1,2.3-0.4c2-0.7,3.5-2.5,3.3-4.7c-0.1-0.8-0.4-1.4-0.9-2c-0.5-0.5-1.1-1-1.8-1.3
	c-0.7-0.4-1.4-0.6-2.1-0.9c-0.6-0.2-1.2-0.4-1.8-0.9c-0.5-0.4-0.5-1,0-1.5c0.3-0.2,0.7-0.3,1-0.3c0.7,0,1.4,0.3,2,0.6
	c0.8,0.4,1.8,0.9,2.6,0.2C11.7,11,11.9,10.5,11.9,9.9z"/>
<path fill="#BB1E23" d="M105.7,8.9c0-0.3-0.1-0.6-0.2-0.8c-0.5-1.3-2.6-1.2-3.3-0.1c-0.2,0.3-0.3,0.5-0.3,0.9
	c-1.4-2-4.3-2.3-6.4-1.2c-0.8,0.4-1.5,0.9-2.1,1.6c-0.6,0.7-1.1,1.5-1.4,2.5c-0.3,0.9-0.5,2-0.5,3.1c0,1.1,0.2,2.2,0.5,3.1
	c0.3,0.9,0.8,1.7,1.4,2.4c2.1,2.4,6.1,3,8.4,0.5c0.1-0.1,0.1-0.1,0.2-0.2c0.1,0.4,0.2,0.7,0.4,0.9c0.2,0.3,0.4,0.4,0.6,0.6
	c0.6,0.3,1.5,0.3,2.1-0.1c0.3-0.2,0.5-0.4,0.6-0.7c0.1-0.3,0.2-0.6,0.2-0.9c0-0.3,0-0.6,0-0.8V9.7C105.8,9.5,105.8,9.2,105.7,8.9z
	 M100.9,17.6c-0.6,0.8-1.4,1.3-2.4,1.2c-1-0.1-1.9-0.7-2.4-1.5c-0.5-0.7-0.7-1.6-0.7-2.5c0-0.1,0-0.2,0-0.4c0.1-0.9,0.3-1.8,0.9-2.5
	c0.5-0.7,1.4-1.2,2.3-1.2c0.9,0,1.8,0.5,2.3,1.2c0.5,0.7,0.8,1.6,0.8,2.5C101.8,15.5,101.6,16.7,100.9,17.6z"/>
<path fill="#BB1E23" d="M75.3,3c0-0.4-0.1-0.8-0.3-1.2c-0.2-0.3-0.4-0.6-0.7-0.8c-0.3-0.2-0.6-0.3-1-0.3c-0.4,0-0.7,0.1-1,0.3
	c-0.3,0.2-0.5,0.4-0.7,0.8c-0.2,0.3-0.3,0.7-0.3,1.2v5.4c-0.4-0.3-0.7-0.6-1.1-0.8c-0.4-0.2-0.8-0.4-1.3-0.5
	c-0.4-0.1-0.9-0.2-1.3-0.2c-0.8,0-1.6,0.1-2.2,0.4c-0.7,0.3-1.3,0.7-1.8,1.1c-0.5,0.5-1,1.1-1.4,1.7c-0.4,0.6-0.7,1.3-0.9,2.1
	c-0.2,0.7-0.3,1.5-0.3,2.2c0,0.8,0.1,1.6,0.3,2.3c0.2,0.8,0.4,1.5,0.8,2.2c0.3,0.7,0.8,1.3,1.3,1.8c0.5,0.5,1.1,0.9,1.8,1.2
	c0.7,0.3,1.5,0.5,2.3,0.5c0.5,0,1-0.1,1.5-0.2c0.5-0.1,0.9-0.3,1.3-0.6c0.4-0.3,0.7-0.6,1-1c0.1,0.5,0.3,0.9,0.7,1.2
	c0.3,0.3,0.8,0.4,1.3,0.4c0.4,0,0.7-0.1,1-0.3c0.3-0.2,0.5-0.4,0.7-0.8c0.2-0.3,0.3-0.7,0.3-1.2V3z M71.3,14.9
	c0,1.2-0.4,2.6-1.4,3.4c-0.6,0.5-1.4,0.7-2.2,0.6c-0.9-0.2-1.6-0.8-2.1-1.6c-0.4-0.8-0.6-1.7-0.6-2.6c0-0.9,0.2-1.8,0.7-2.6
	c0.5-0.8,1.3-1.4,2.2-1.4c1-0.1,1.9,0.4,2.5,1.2C71.1,12.7,71.3,13.9,71.3,14.9"/>
</svg>
